<svg width="21" height="19" viewBox="0 0 21 19" fill="none" xmlns="http://www.w3.org/2000/svg">
  <path d="M20.7225 13.8962C20.7225 11.2281 18.8356 9.1715 15.8942 9.28265C16.1716 5.55848 19.0576 2.33456 21 0.833776L20.445 0C16.3937 2.5569 11.2878 7.83747 11.2878 13.2848C11.2878 16.3975 13.0637 18.6765 15.9497 18.6765C18.8356 18.6765 20.7225 16.4531 20.7225 13.8962ZM9.43471 13.8962C9.43471 11.2281 7.54776 9.1715 4.60635 9.28265C4.88385 5.55848 7.76974 2.33456 9.71217 0.833776L9.15721 0C5.10582 2.5569 0 7.83747 0 13.2848C0 16.3975 1.77594 18.6765 4.66184 18.6765C7.54776 18.6765 9.43471 16.4531 9.43471 13.8962Z" fill="white"/>
</svg>
